<svg width="22" height="22" viewBox="0 0 22 22" fill="none" xmlns="http://www.w3.org/2000/svg">
<path d="M22 11C22 4.95013 17.0499 5.90297e-08 11 1.31174e-07C4.95013 2.03318e-07 -1.13306e-06 4.95013 -1.06092e-06 11C-9.88775e-07 17.0499 4.95013 22 11 22C17.0499 22 22 17.0501 22 11ZM1.46667 11C1.46667 5.7568 5.75667 1.46667 11 1.46667C16.2432 1.46667 20.5333 5.75667 20.5333 11C20.5333 16.2432 16.2433 20.5333 11 20.5333C5.7568 20.5333 1.46667 16.2433 1.46667 11ZM12.87 16.1701C12.5766 16.4634 12.1367 16.4634 11.8433 16.1701L7.18686 11.5133C7.04005 11.3668 6.96665 11.1834 6.96665 11C6.96665 10.8166 7.04005 10.6332 7.18661 10.4867L11.8433 5.83022C12.1367 5.53686 12.5766 5.53686 12.87 5.83022C13.1634 6.12359 13.1634 6.56349 12.87 6.85689L8.72687 11L12.8703 15.1434C13.1634 15.4368 13.1634 15.9136 12.87 16.1701L12.87 16.1701Z" fill="#333333"/>
</svg>
