<svg width="22" height="22" viewBox="0 0 22 22" fill="none" xmlns="http://www.w3.org/2000/svg">
<path d="M-4.80825e-07 11C-2.16377e-07 17.0499 4.95013 22 11 22C17.0499 22 22 17.0499 22 11C22 4.95013 17.0499 -7.45274e-07 11 -4.80825e-07C4.95013 -2.16377e-07 -7.45285e-07 4.94987 -4.80825e-07 11ZM20.5333 11C20.5333 16.2432 16.2433 20.5333 11 20.5333C5.7568 20.5333 1.46667 16.2433 1.46667 11C1.46667 5.7568 5.75667 1.46667 11 1.46667C16.2432 1.46667 20.5333 5.75667 20.5333 11ZM9.13 5.82993C9.42337 5.53657 9.86327 5.53657 10.1567 5.82993L14.8131 10.4867C14.9599 10.6332 15.0334 10.8166 15.0334 11C15.0334 11.1834 14.9599 11.3668 14.8134 11.5133L10.1567 16.1698C9.86329 16.4631 9.42339 16.4631 9.12999 16.1698C8.83663 15.8764 8.83663 15.4365 9.12999 15.1431L13.2731 11L9.12973 6.85658C8.83662 6.56321 8.83663 6.08647 9.13 5.82993Z" fill="#333333"/>
</svg>
